#!OML:ASF F:\VICON\USERDATA\INSTALL\rory3\rory3.ASF
:FULLY-SPECIFIED
:DEGREES
3014
root -2.36538 17.4231 0.497978 4.55956 6.49902 -22.7131
lowerback 4.47914 2.56328 -13.2533
upperback -0.128282 2.30523 -15.8013
thorax -2.54961 1.22491 -9.88979
lowerneck -20.5991 13.0673 -5.48083
upperneck 34.783 22.8958 -1.84492
head 15.2509 8.29041 4.19962
rclavicle -7.95139e-015 -3.81667e-014
rhumerus 34.7446 -51.5044 6.9689
rradius 74.3909
rwrist 35.596
rhand -47.2454 25.3456
rfingers 7.12502
rthumb -19.9432 -3.6511
lclavicle -7.95139e-015 -3.81667e-014
lhumerus -17.0744 53.0544 31.3965
lradius 35.4695
lwrist 16.0119
lhand -16.8311 22.5954
lfingers 7.12502
lthumb 9.39835 52.3658
rfemur -8.695 -8.97779 40.6401
rtibia 19.032
rfoot -13.2228 -3.84101
rtoes 2.77157
lfemur -23.2709 -8.71114 15.0068
ltibia 41.8714
lfoot -21.6909 7.03269
ltoes -26.2506
3015
root -2.37275 17.4247 0.495472 4.53113 6.60504 -22.6431
lowerback 4.44824 2.59 -13.2634
upperback 0.000415585 2.37695 -15.8182
thorax -2.38512 1.25781 -9.90018
lowerneck -20.6479 12.9892 -5.6588
upperneck 34.8031 22.8032 -1.73342
head 15.229 8.24739 4.25206
rclavicle -1.74931e-014 1.55847e-013
rhumerus 34.952 -51.6113 6.82881
rradius 74.4917
rwrist 35.6374
rhand -47.2707 25.7501
rfingers 7.12502
rthumb -19.9675 -3.24406
lclavicle -1.74931e-014 1.55847e-013
lhumerus -16.7708 53.0668 31.9596
lradius 35.4206
lwrist 16.06
lhand -16.6319 22.6968
lfingers 7.12502
lthumb 9.59052 52.4585
rfemur -8.65559 -9.14297 40.5915
rtibia 18.9704
rfoot -13.214 -3.83404
rtoes 2.89071
lfemur -23.2923 -8.80108 14.9565
ltibia 41.7949
lfoot -21.5979 7.04307
ltoes -26.343
3016
root -2.38108 17.4263 0.490411 4.50226 6.74824 -22.571
lowerback 4.52368 2.61263 -13.2863
upperback 0.0851044 2.40714 -15.8211
thorax -2.33412 1.27233 -9.89347
lowerneck -20.7224 12.9388 -5.75501
upperneck 34.9019 22.7539 -1.63747
head 15.2632 8.21862 4.30468
rclavicle -3.97569e-014 1.145e-013
rhumerus 35.075 -51.6315 6.67916
rradius 74.6946
rwrist 35.5623
rhand -47.1705 26.184
rfingers 7.12502
rthumb -19.8711 -2.82015
lclavicle -3.97569e-014 1.145e-013
lhumerus -16.5367 53.2547 32.4662
lradius 35.3331
lwrist 15.8084
lhand -16.5064 22.3005
lfingers 7.12502
lthumb 9.71162 52.0566
rfemur -8.6572 -9.13181 40.5539
rtibia 18.9468
rfoot -13.2268 -3.92093
rtoes 3.10775
lfemur -23.379 -8.88785 14.9196
ltibia 41.7855
lfoot -21.5698 6.9608
ltoes -26.1066
3017
root -2.38861 17.4233 0.484332 4.50305 6.94346 -22.6548
lowerback 4.68218 2.59549 -13.1314
upperback 0.0477571 2.34907 -15.7847
thorax -2.4651 1.24533 -9.94396
lowerneck -20.5262 12.9617 -5.6606
upperneck 34.869 22.7506 -1.69085
head 15.2271 8.23342 4.25234
rclavicle 3.18055e-015 8.90555e-014
rhumerus 35.2902 -51.4681 6.50224
rradius 74.8332
rwrist 35.4966
rhand -47.286 25.8683
rfingers 7.12502
rthumb -19.9822 -3.12429
lclavicle 3.18055e-015 8.90555e-014
lhumerus -16.6643 53.0142 32.6292
lradius 35.2906
lwrist 15.729
lhand -16.5579 22.3621
lfingers 7.12502
lthumb 9.6619 52.1206
rfemur -8.75032 -9.14693 40.6844
rtibia 18.9927
rfoot -13.334 -3.97715
rtoes 3.54741
lfemur -23.5774 -8.85893 15.0756
ltibia 41.8363
lfoot -21.5774 6.78194
ltoes -26.1153
3018
root -2.39733 17.4192 0.474987 4.55268 7.2038 -22.7688
lowerback 4.80392 2.60318 -13.0143
upperback 0.0776731 2.34686 -15.7071
thorax -2.50053 1.24478 -9.92183
lowerneck -20.4311 12.9223 -5.75222
upperneck 34.7837 22.6829 -1.6664
head 15.1508 8.2158 4.2461
rclavicle 9.54166e-015 -4.45278e-014
rhumerus 35.2938 -51.4444 6.53338
rradius 74.9449
rwrist 35.4136
rhand -47.4327 25.9906
rfingers 7.12502
rthumb -20.1232 -2.98723
lclavicle 9.54166e-015 -4.45278e-014
lhumerus -16.5968 52.6617 33.0538
lradius 35.2596
lwrist 15.8971
lhand -16.4586 22.3733
lfingers 7.12502
lthumb 9.7577 52.1273
rfemur -8.94914 -9.08216 40.889
rtibia 19.0572
rfoot -13.4249 -4.21432
rtoes 3.55847
lfemur -23.9094 -8.81309 15.2921
ltibia 41.912
lfoot -21.4978 6.66004
ltoes -26.481
3019
root -2.40447 17.4079 0.459652 4.58182 7.4745 -23.108
lowerback 4.94924 2.60648 -12.674
upperback 0.138404 2.35421 -15.5757
thorax -2.50801 1.24616 -9.95944
lowerneck -20.491 12.8833 -5.77457
upperneck 34.7788 22.6501 -1.70032
head 15.1665 8.19304 4.23751
rclavicle 6.52014e-014 -9.85972e-014
rhumerus 35.1514 -51.4954 6.70967
rradius 75.0511
rwrist 35.3332
rhand -47.4202 25.6888
rfingers 7.12502
rthumb -20.1112 -3.29032
lclavicle 6.52014e-014 -9.85972e-014
lhumerus -16.3721 52.6627 33.6046
lradius 35.2486
lwrist 15.7516
lhand -16.4744 22.4525
lfingers 7.12502
lthumb 9.7425 52.2072
rfemur -9.19629 -8.96994 41.346
rtibia 19.1302
rfoot -13.5467 -4.42799
rtoes 3.81202
lfemur -24.2865 -8.76559 15.7978
ltibia 41.9893
lfoot -21.4181 6.41915
ltoes -26.5057
